<svg width="21.000000" height="21.000000" viewBox="0 0 21 21" fill="none" xmlns="http://www.w3.org/2000/svg" xmlns:xlink="http://www.w3.org/1999/xlink">
	<desc>
			Created with Pixso.
	</desc>
	<defs/>
	<path id="Vector" d="M0 1.5C0 1.10156 0.15802 0.720703 0.439331 0.439453C0.720642 0.158203 1.10217 0 1.5 0L4.5 0C4.89783 0 5.27936 0.158203 5.56067 0.439453C5.84198 0.720703 6 1.10156 6 1.5L6 4.5C6 4.89844 5.84198 5.2793 5.56067 5.56055C5.27936 5.8418 4.89783 6 4.5 6L1.5 6C1.10217 6 0.720642 5.8418 0.439331 5.56055C0.15802 5.2793 0 4.89844 0 4.5L0 1.5ZM7.5 1.5C7.5 1.10156 7.65805 0.720703 7.93933 0.439453C8.22064 0.158203 8.60217 0 9 0L12 0C12.3978 0 12.7794 0.158203 13.0607 0.439453C13.342 0.720703 13.5 1.10156 13.5 1.5L13.5 4.5C13.5 4.89844 13.342 5.2793 13.0607 5.56055C12.7794 5.8418 12.3978 6 12 6L9 6C8.60217 6 8.22064 5.8418 7.93933 5.56055C7.65805 5.2793 7.5 4.89844 7.5 4.5L7.5 1.5ZM15 1.5C15 1.10156 15.1581 0.720703 15.4393 0.439453C15.7206 0.158203 16.1022 0 16.5 0L19.5 0C19.8978 0 20.2794 0.158203 20.5607 0.439453C20.842 0.720703 21 1.10156 21 1.5L21 4.5C21 4.89844 20.842 5.2793 20.5607 5.56055C20.2794 5.8418 19.8978 6 19.5 6L16.5 6C16.1022 6 15.7206 5.8418 15.4393 5.56055C15.1581 5.2793 15 4.89844 15 4.5L15 1.5ZM0 9C0 8.60156 0.15802 8.2207 0.439331 7.93945C0.720642 7.6582 1.10217 7.5 1.5 7.5L4.5 7.5C4.89783 7.5 5.27936 7.6582 5.56067 7.93945C5.84198 8.2207 6 8.60156 6 9L6 12C6 12.3984 5.84198 12.7793 5.56067 13.0605C5.27936 13.3418 4.89783 13.5 4.5 13.5L1.5 13.5C1.10217 13.5 0.720642 13.3418 0.439331 13.0605C0.15802 12.7793 0 12.3984 0 12L0 9ZM7.5 9C7.5 8.60156 7.65805 8.2207 7.93933 7.93945C8.22064 7.6582 8.60217 7.5 9 7.5L12 7.5C12.3978 7.5 12.7794 7.6582 13.0607 7.93945C13.342 8.2207 13.5 8.60156 13.5 9L13.5 12C13.5 12.3984 13.342 12.7793 13.0607 13.0605C12.7794 13.3418 12.3978 13.5 12 13.5L9 13.5C8.60217 13.5 8.22064 13.3418 7.93933 13.0605C7.65805 12.7793 7.5 12.3984 7.5 12L7.5 9ZM15 9C15 8.60156 15.1581 8.2207 15.4393 7.93945C15.7206 7.6582 16.1022 7.5 16.5 7.5L19.5 7.5C19.8978 7.5 20.2794 7.6582 20.5607 7.93945C20.842 8.2207 21 8.60156 21 9L21 12C21 12.3984 20.842 12.7793 20.5607 13.0605C20.2794 13.3418 19.8978 13.5 19.5 13.5L16.5 13.5C16.1022 13.5 15.7206 13.3418 15.4393 13.0605C15.1581 12.7793 15 12.3984 15 12L15 9ZM0 16.5C0 16.1016 0.15802 15.7207 0.439331 15.4395C0.720642 15.1582 1.10217 15 1.5 15L4.5 15C4.89783 15 5.27936 15.1582 5.56067 15.4395C5.84198 15.7207 6 16.1016 6 16.5L6 19.5C6 19.8984 5.84198 20.2793 5.56067 20.5605C5.27936 20.8418 4.89783 21 4.5 21L1.5 21C1.10217 21 0.720642 20.8418 0.439331 20.5605C0.15802 20.2793 0 19.8984 0 19.5L0 16.5ZM7.5 16.5C7.5 16.1016 7.65805 15.7207 7.93933 15.4395C8.22064 15.1582 8.60217 15 9 15L12 15C12.3978 15 12.7794 15.1582 13.0607 15.4395C13.342 15.7207 13.5 16.1016 13.5 16.5L13.5 19.5C13.5 19.8984 13.342 20.2793 13.0607 20.5605C12.7794 20.8418 12.3978 21 12 21L9 21C8.60217 21 8.22064 20.8418 7.93933 20.5605C7.65805 20.2793 7.5 19.8984 7.5 19.5L7.5 16.5ZM15 16.5C15 16.1016 15.1581 15.7207 15.4393 15.4395C15.7206 15.1582 16.1022 15 16.5 15L19.5 15C19.8978 15 20.2794 15.1582 20.5607 15.4395C20.842 15.7207 21 16.1016 21 16.5L21 19.5C21 19.8984 20.842 20.2793 20.5607 20.5605C20.2794 20.8418 19.8978 21 19.5 21L16.5 21C16.1022 21 15.7206 20.8418 15.4393 20.5605C15.1581 20.2793 15 19.8984 15 19.5L15 16.5Z" fill="#141718" fill-opacity="1.000000" fill-rule="nonzero"/>
</svg>
